<?xml version="1.0" encoding="UTF-8"?>
<svg version="1.1" xmlns="http://www.w3.org/2000/svg" width="1893" height="1200">
<path d="M0 0 C1.72573242 0.25740967 1.72573242 0.25740967 3.48632812 0.52001953 C57.13305378 8.68079794 109.45076876 28.73820962 149.75 65.9375 C151.72789558 67.75057094 153.75196817 69.47039014 155.8125 71.1875 C217.77233919 125.40235929 242.66480623 216.94748465 248 296 C248.23160524 300.26953425 248.40780253 304.53953937 248.5625 308.8125 C248.6251001 310.53339844 248.6251001 310.53339844 248.68896484 312.2890625 C248.97491352 320.53372161 249.19390399 328.75060882 249 337 C248.98211426 337.86334961 248.96422852 338.72669922 248.94580078 339.61621094 C247.67437501 394.87218924 239.02617019 450.65931896 221 503 C220.61763184 504.11552246 220.23526367 505.23104492 219.84130859 506.38037109 C207.6295707 541.57233318 191.24908003 575.14574436 172 607 C171.54383301 607.75748535 171.08766602 608.5149707 170.61767578 609.29541016 C154.20465168 636.42328044 135.38893066 662.48561629 113.94921875 685.8671875 C112.0521935 687.94289048 110.2099197 690.05688684 108.375 692.1875 C105.62401109 695.35050338 102.72304311 698.30125576 99.73046875 701.234375 C97.99397728 703.00614508 96.40716374 704.85030373 94.8125 706.75 C90.46921414 711.78161911 85.52195901 716.13727056 80.58496094 720.56787109 C79.02604498 721.97646644 77.48323282 723.40056711 75.9453125 724.83203125 C69.50453409 730.82199691 62.89862517 736.53858841 56 742 C55.05125 742.75539063 54.1025 743.51078125 53.125 744.2890625 C36.60043519 757.23049463 19.29203843 768.71178911 1 779 C-0.20390381 779.6803833 -0.20390381 779.6803833 -1.43212891 780.37451172 C-62.67596261 814.67464085 -135.05845178 825.44976374 -202.93798828 806.41625977 C-256.48132357 790.85267684 -303.5003417 760.63066745 -344.46655273 723.2980957 C-346.0457673 721.86558663 -347.63208197 720.44081861 -349.22900391 719.02807617 C-355.58113579 713.39762488 -361.63649177 707.51831339 -367.6237793 701.5065918 C-369.1927236 699.93225845 -370.76698558 698.36338411 -372.34179688 696.79492188 C-377.24210997 691.8978371 -382.04786235 686.96067268 -386.55297852 681.69213867 C-388.59854586 679.30006389 -390.73946018 676.99920388 -392.875 674.6875 C-397.32688655 669.80112002 -401.5330313 664.76464457 -405.68066406 659.61962891 C-407.15464863 657.81015192 -408.64990254 656.01966395 -410.1484375 654.23046875 C-418.52728667 644.20387105 -426.48741822 633.918349 -434.234375 623.39648438 C-435.83629766 621.22219333 -437.44852511 619.0559709 -439.0625 616.890625 C-461.0300366 587.17681139 -480.84902623 555.72188397 -498 523 C-498.77657959 521.52273438 -498.77657959 521.52273438 -499.56884766 520.015625 C-540.84506474 440.94990866 -563.43337002 348.27076306 -537.1484375 260.66796875 C-533.06415162 247.67101462 -527.9849154 235.23037127 -522 223 C-521.62149902 222.21850586 -521.24299805 221.43701172 -520.85302734 220.63183594 C-512.07984079 202.69933866 -501.04627749 185.96009133 -488.3125 170.58886719 C-487.0360816 169.04367914 -485.78326886 167.47908608 -484.53125 165.9140625 C-477.686948 157.51429589 -470.07194713 149.86047664 -462.4375 142.1875 C-461.90678894 141.65152191 -461.37607788 141.11554382 -460.82928467 140.56332397 C-453.88889069 133.56976896 -446.74173997 127.11581198 -439 121 C-437.78014951 119.9990145 -436.56237588 118.995487 -435.34765625 117.98828125 C-388.35181063 79.51536327 -332.17455572 53.39995162 -275 34 C-273.9387793 33.63729004 -272.87755859 33.27458008 -271.78417969 32.90087891 C-224.39678252 16.90781502 -174.64326878 6.43075245 -125.04223633 0.25714111 C-123.10325292 0.01300073 -121.16582493 -0.24340102 -119.22851562 -0.50048828 C-80.6147108 -5.49507754 -38.49856538 -6.04118639 0 0 Z M-145 121 C-145 204.49 -145 287.98 -145 374 C-228.49 374 -311.98 374 -398 374 C-398 420.53 -398 467.06 -398 515 C-349.82 515 -301.64 515 -252 515 C-252 563.18 -252 611.36 -252 661 C-205.47 661 -158.94 661 -111 661 C-111 577.51 -111 494.02 -111 408 C-27.84 408 55.32 408 141 408 C141 361.14 141 314.28 141 266 C93.15 266 45.3 266 -4 266 C-4 218.15 -4 170.3 -4 121 C-50.53 121 -97.06 121 -145 121 Z " fill="#DC6451" transform="translate(560,89)"/>
<path d="M0 0 C72.27 0 144.54 0 219 0 C219 72.27 219 144.54 219 219 C194.58 219 170.16 219 145 219 C145 170.82 145 122.64 145 73 C97.15 73 49.3 73 0 73 C0 48.91 0 24.82 0 0 Z " fill="#DE6C51" transform="translate(196,497)"/>
<path d="M0 0 C-0.58752495 3.40222284 -1.70594726 5.0994095 -4.08984375 7.56640625 C-4.70923828 8.21673828 -5.32863281 8.86707031 -5.96679688 9.53710938 C-6.61712891 10.20548828 -7.26746094 10.87386719 -7.9375 11.5625 C-9.21926908 12.89538649 -10.49928967 14.22995717 -11.77734375 15.56640625 C-12.34702881 16.15365479 -12.91671387 16.74090332 -13.50366211 17.34594727 C-15.19693578 19.13632439 -15.19693578 19.13632439 -17 22 C-20.19222172 20.90267378 -22.83811311 19.48865893 -25.625 17.625 C-37.49914258 10.10101059 -52.21377177 7.46481441 -66 10 C-77.46689015 13.00286269 -88.49821633 19.47973926 -94.6953125 29.83203125 C-101.14400439 42.21538886 -103.24349487 54.04710575 -99.375 67.8125 C-97.68054346 72.77483701 -95.48408262 76.89065533 -92.3671875 81.09765625 C-91 83 -91 83 -90.0703125 85.12109375 C-88.71039167 87.50840002 -87.48926478 87.9143535 -85 89 C-83.57249521 89.9632974 -82.15628899 90.94348638 -80.75 91.9375 C-70.95265094 98.53341644 -59.69840479 100.55983279 -48.03271484 98.68359375 C-39.94861539 97.09870249 -31.37152834 95.36549755 -25 90 C-24.67 86.04 -24.34 82.08 -24 78 C-35.88 78 -47.76 78 -60 78 C-60 69.75 -60 61.5 -60 53 C-38.55 53 -17.1 53 5 53 C5.185625 61.600625 5.37125 70.20125 5.5625 79.0625 C5.68540405 83.11736694 5.68540405 83.11736694 5.81079102 87.25415039 C5.83709007 89.41027817 5.86002088 91.56645079 5.87890625 93.72265625 C5.9479718 95.38548645 5.9479718 95.38548645 6.01843262 97.08190918 C6.02624522 104.80510307 6.02624522 104.80510307 3.07958984 108.23600769 C0.79343821 110.0494783 -1.46323743 111.56229844 -4 113 C-4.72725784 113.41776703 -5.45451569 113.83553406 -6.20381165 114.26596069 C-8.14416449 115.33360446 -10.10778397 116.27385365 -12.125 117.1875 C-12.85944336 117.52281738 -13.59388672 117.85813477 -14.35058594 118.20361328 C-35.6594264 127.63697544 -62.0404734 130.51380005 -84.203125 122.1875 C-93.53848422 118.22388379 -101.40606903 113.77157634 -109 107 C-109.71027344 106.37222656 -110.42054687 105.74445313 -111.15234375 105.09765625 C-123.23199964 93.759937 -131.64340229 76.63707128 -132.46875 60.01953125 C-132.50253981 57.95077054 -132.51237575 55.88149963 -132.5 53.8125 C-132.49572998 52.72187256 -132.49145996 51.63124512 -132.48706055 50.50756836 C-132.29324436 41.23794965 -130.62789275 33.48846729 -127 25 C-126.61585937 24.06285156 -126.23171875 23.12570312 -125.8359375 22.16015625 C-122.89351917 15.66481782 -118.68416243 10.33449642 -114 5 C-113.40574219 4.31035156 -112.81148437 3.62070312 -112.19921875 2.91015625 C-83.49743789 -28.12710142 -30.81723273 -26.65274182 0 0 Z " fill="#5B5A5D" transform="translate(1241,626)"/>
<path d="M0 0 C1.48831242 0.00667405 2.97660807 0.01863442 4.46484375 0.03515625 C5.22345703 0.03966797 5.98207031 0.04417969 6.76367188 0.04882812 C8.64326246 0.06064945 10.52281274 0.07858547 12.40234375 0.09765625 C19.2886902 14.25370312 26.13101699 28.42277219 32.71484375 42.72265625 C37.64185821 53.41626611 42.73558696 64.01842102 47.90234375 74.59765625 C53.70084325 86.47115882 59.3853187 98.38600323 64.9128418 110.38818359 C68.6926072 118.59488074 72.55491034 126.75833143 76.50952148 134.88232422 C76.89309814 135.67783691 77.2766748 136.47334961 77.671875 137.29296875 C78.00807861 137.98406738 78.34428223 138.67516602 78.69067383 139.38720703 C79.40234375 141.09765625 79.40234375 141.09765625 79.40234375 143.09765625 C69.17234375 143.09765625 58.94234375 143.09765625 48.40234375 143.09765625 C47.18546875 140.70515625 45.96859375 138.31265625 44.71484375 135.84765625 C44.34270752 135.1215918 43.97057129 134.39552734 43.5871582 133.64746094 C40.51258355 127.54747944 38.05479662 121.46354315 35.40234375 115.09765625 C14.61234375 114.76765625 -6.17765625 114.43765625 -27.59765625 114.09765625 C-28.58765625 117.06765625 -29.57765625 120.03765625 -30.59765625 123.09765625 C-31.24312897 124.77368316 -31.90765831 126.44273576 -32.60546875 128.09765625 C-32.95222656 128.92136719 -33.29898437 129.74507812 -33.65625 130.59375 C-34.18412109 131.83318359 -34.18412109 131.83318359 -34.72265625 133.09765625 C-35.08230469 133.95488281 -35.44195313 134.81210937 -35.8125 135.6953125 C-38.46576666 141.96576666 -38.46576666 141.96576666 -39.59765625 143.09765625 C-41.88917042 143.185566 -44.18338149 143.20459663 -46.4765625 143.1953125 C-47.50655617 143.19319008 -47.50655617 143.19319008 -48.55735779 143.19102478 C-50.75833426 143.18541104 -52.95921034 143.17285632 -55.16015625 143.16015625 C-56.64908708 143.15514301 -58.13801949 143.1505798 -59.62695312 143.14648438 C-63.283887 143.13543718 -66.94076183 143.11816338 -70.59765625 143.09765625 C-69.95540798 138.41720092 -68.0505029 134.4707896 -66.01171875 130.265625 C-65.45917923 129.10852776 -65.45917923 129.10852776 -64.89547729 127.92805481 C-63.67634823 125.3779231 -62.44944475 122.8316109 -61.22265625 120.28515625 C-60.36073304 118.4853109 -59.49941478 116.68517573 -58.63867188 114.88476562 C-56.84902636 111.14258782 -55.05677684 107.40167408 -53.26269531 103.66162109 C-49.57535942 95.96980038 -45.91966823 88.26300178 -42.26400757 80.55609131 C-40.30767476 76.43253343 -38.34906073 72.31005943 -36.390625 68.1875 C-36.00093033 67.36707214 -35.61123566 66.54664429 -35.20973206 65.70135498 C-32.72505713 60.47041339 -30.23964713 55.23982154 -27.7538147 50.00942993 C-26.04876825 46.42180937 -24.34395617 42.83407746 -22.63916016 39.24633789 C-21.83735574 37.55910821 -21.03544035 35.87193125 -20.23339844 34.18481445 C-19.11103347 31.82387037 -17.98905803 29.46274156 -16.8671875 27.1015625 C-16.3351622 25.98257065 -16.3351622 25.98257065 -15.79238892 24.8409729 C-13.95180492 20.96568392 -12.12182186 17.08576095 -10.30615234 13.19873047 C-9.93713303 12.40981918 -9.56811371 11.6209079 -9.18791199 10.80809021 C-8.48377489 9.30122308 -7.78147121 7.79349749 -7.08125305 6.2848053 C-4.19682823 0.11392042 -4.19682823 0.11392042 0 0 Z M3.40234375 44.09765625 C3.03995605 44.90807373 2.67756836 45.71849121 2.30419922 46.5534668 C0.92932218 49.62714594 -0.44625261 52.70051097 -1.82226562 55.77368164 C-2.4120536 57.09126926 -3.00158161 58.40897329 -3.59082031 59.72680664 C-4.44914572 61.64632104 -5.30846695 63.5653871 -6.16796875 65.484375 C-6.45117981 66.11810028 -6.73439087 66.75182556 -7.02618408 67.40475464 C-8.44395838 70.56747805 -9.88242632 73.71774341 -11.36621094 76.85009766 C-11.91438477 78.0107373 -12.46255859 79.17137695 -13.02734375 80.3671875 C-13.52218262 81.40077393 -14.01702148 82.43436035 -14.52685547 83.49926758 C-15.78816441 86.09154367 -15.78816441 86.09154367 -15.59765625 89.09765625 C-2.39765625 89.09765625 10.80234375 89.09765625 24.40234375 89.09765625 C21.88347061 82.80047339 19.34672192 76.61087609 16.51171875 70.46484375 C16.16224182 69.70213165 15.81276489 68.93941956 15.45269775 68.15359497 C14.35482951 65.75890869 13.25365522 63.36576063 12.15234375 60.97265625 C11.39951851 59.33213268 10.64691254 57.69150847 9.89453125 56.05078125 C8.06632833 52.06524131 6.23516241 48.08107554 4.40234375 44.09765625 C4.07234375 44.09765625 3.74234375 44.09765625 3.40234375 44.09765625 Z " fill="#5B5A5D" transform="translate(1327.59765625,607.90234375)"/>
<path d="M0 0 C9.57 0 19.14 0 29 0 C29 38.94 29 77.88 29 118 C53.09 118 77.18 118 102 118 C102 126.25 102 134.5 102 143 C68.34 143 34.68 143 0 143 C0 95.81 0 48.62 0 0 Z " fill="#5B5A5D" transform="translate(930,608)"/>
<path d="M0 0 C9.9 0 19.8 0 30 0 C30 47.19 30 94.38 30 143 C20.1 143 10.2 143 0 143 C0 95.81 0 48.62 0 0 Z " fill="#5B5A5D" transform="translate(1056,608)"/>
<path d="M0 0 C13.73607785 11.59539039 22.12031779 27.32349568 23.75 45.25 C25.06224694 62.62927051 18.95601443 78.55665938 8.5 92.1875 C-3.33896242 105.68878248 -19.47982711 113.90638564 -37.36474609 115.43017578 C-55.57758355 116.55313305 -73.95973496 112.53595582 -88.08666992 100.34008789 C-97.02969087 92.18619877 -103.96686029 83.63925786 -108.25 72.25 C-108.5696875 71.46882812 -108.889375 70.68765625 -109.21875 69.8828125 C-114.43633983 54.76146419 -112.23806625 36.66645559 -105.96484375 22.30859375 C-102.46580996 15.30077956 -97.7542094 9.77261813 -92.25 4.25 C-91.56164063 3.5384375 -90.87328125 2.826875 -90.1640625 2.09375 C-65.46816546 -21.77589027 -26.16051114 -19.64050683 0 0 Z M-87.91796875 10.69140625 C-99.05875768 22.91454988 -104.86402562 37.95634529 -104.09375 54.6328125 C-102.06555433 70.8193741 -94.78107839 84.17929189 -82.375 94.6875 C-67.80890971 105.47551062 -52.06217667 108.89730297 -34.25 107.25 C-18.42086896 104.85634497 -4.78469214 95.98005207 4.921875 83.4453125 C13.28924065 70.82274807 17.79323394 56.5458331 15.0625 41.44921875 C11.36833999 24.33641562 2.50082516 11.00900615 -12.25 1.25 C-36.97038467 -13.50183931 -67.59257377 -9.32926017 -87.91796875 10.69140625 Z " fill="#5B5A5D" transform="translate(1174.25,817.75)"/>
<path d="M0 0 C18.93969447 -0.58707948 36.26957653 5.41474625 50.3984375 18.16015625 C50.9965625 18.66675781 51.5946875 19.17335938 52.2109375 19.6953125 C64.80647824 31.13813634 70.35175849 47.41234624 71.33935547 63.96826172 C71.83553863 82.37624689 64.447469 98.46546088 52.2109375 111.91015625 C35.60332856 127.29324103 16.24536482 131.02025881 -5.71630859 130.33935547 C-22.46157013 129.29932992 -37.65652658 119.80709823 -48.8515625 107.78515625 C-60.36985148 94.22329987 -65.16879821 78.44786437 -64.5390625 60.72265625 C-62.82445708 41.54300023 -53.33651722 26.27880265 -38.8515625 13.91015625 C-27.6659217 5.31249756 -13.95822612 0.8592902 0 0 Z M-39.546875 24.8515625 C-50.88502876 37.59081891 -57.18486571 51.78865763 -56.6015625 69.16015625 C-54.7988264 86.30492767 -46.37590748 99.96111899 -33.3515625 110.91015625 C-23.8017379 117.99713134 -12.41367341 122.22762118 -0.6015625 123.16015625 C0.39617187 123.24136719 0.39617187 123.24136719 1.4140625 123.32421875 C18.42536362 124.01727176 33.08138358 117.03389175 45.66015625 106.21484375 C55.85635994 96.62070161 62.20940219 83.09930863 63.3984375 69.16015625 C63.54876405 54.82902521 59.93465315 42.67084705 51.3984375 31.16015625 C50.82480469 30.37898437 50.25117187 29.5978125 49.66015625 28.79296875 C41.4942834 18.68617109 29.88782798 12.28715715 17.3984375 9.16015625 C16.63789062 8.969375 15.87734375 8.77859375 15.09375 8.58203125 C-4.6713549 5.48836266 -24.9995846 10.7708833 -39.546875 24.8515625 Z " fill="#5B5A5D" transform="translate(989.6015625,983.83984375)"/>
<path d="M0 0 C72.29192547 0 72.29192547 0 84.03515625 10.88671875 C92.90214426 20.46909008 95.49527408 31.35719544 95.18359375 44.24609375 C94.39901525 56.01477131 91.15645763 65.94136039 82.390625 74.171875 C77.50474849 77.90813351 71.28201819 82 65 82 C65.35078613 82.47606689 65.70157227 82.95213379 66.06298828 83.44262695 C66.56040527 84.11769287 67.05782227 84.79275879 67.5703125 85.48828125 C68.41057983 86.62861816 68.41057983 86.62861816 69.26782227 87.79199219 C70.518377 89.48920885 71.76886398 91.18647544 73.01928711 92.88378906 C76.30165634 97.33904838 79.5850868 101.79351662 82.87109375 106.24609375 C83.49032715 107.08551514 84.10956055 107.92493652 84.74755859 108.78979492 C85.92845177 110.39052945 87.10974566 111.99096846 88.29150391 113.59106445 C89.36324179 115.04420654 90.43301782 116.49879834 91.50048828 117.95507812 C92.4990518 119.31684434 93.50263513 120.67494398 94.51123047 122.02929688 C98 126.77568884 98 126.77568884 98 129 C94.88916246 129.46115431 92.10094785 129.58601586 89 129 C86.29109541 126.98417635 84.61085089 124.41536563 82.75 121.625 C82.20843262 120.86638672 81.66686523 120.10777344 81.10888672 119.32617188 C79.96551484 117.71998309 78.8347172 116.10477875 77.71582031 114.48144531 C75.46012723 111.21922782 73.1299657 108.01396412 70.79785156 104.80615234 C69.71863544 103.31837133 68.64466072 101.82676737 67.57714844 100.33056641 C66.60578025 98.96920302 65.62348697 97.61553719 64.6280365 96.27168274 C63 94 63 94 61.56208801 91.65016174 C58.42321406 86.8565092 58.42321406 86.8565092 53.52301025 84.21200562 C50.58114383 83.9595716 47.7659444 83.98594974 44.81640625 84.12109375 C43.76090073 84.13382828 42.7053952 84.14656281 41.61790466 84.15968323 C38.26371421 84.20986028 34.91503967 84.3227249 31.5625 84.4375 C29.28197948 84.48266684 27.00137369 84.52372755 24.72070312 84.56054688 C19.14332906 84.6518462 13.57779535 84.82788517 8 85 C8 99.52 8 114.04 8 129 C5.36 129 2.72 129 0 129 C0 86.43 0 43.86 0 0 Z M8 7 C8 30.1 8 53.2 8 77 C15.651875 77.0825 23.30375 77.165 31.1875 77.25 C33.57508545 77.28641602 35.9626709 77.32283203 38.42260742 77.36035156 C52.7234651 77.48792881 66.79686929 77.23189155 78 67 C85.25645389 58.28912755 87.08330983 49.18732054 87 38 C85.68409762 27.99439992 81.97464278 19.6877869 74.0234375 13.31640625 C64.93941996 7.40653384 55.43053014 6.84884734 44.9140625 6.90234375 C43.5077356 6.90385437 43.5077356 6.90385437 42.07299805 6.90539551 C38.59031949 6.91060446 35.10765844 6.92456565 31.625 6.9375 C23.82875 6.958125 16.0325 6.97875 8 7 Z " fill="#5B5A5D" transform="translate(1783,985)"/>
<path d="M0 0 C71.59512195 0 71.59512195 0 84.87109375 12.77734375 C93.18296138 21.45523858 94.98667933 32.29113033 95 44 C94.29044203 55.85606855 91.14156746 66.88958549 82 75 C77.00956583 78.52505383 71.94673952 81.43506855 66 83 C67.34716818 85.86253357 68.87773056 88.34286804 70.765625 90.87890625 C71.31959961 91.62648193 71.87357422 92.37405762 72.44433594 93.14428711 C73.04020508 93.94229736 73.63607422 94.74030762 74.25 95.5625 C74.86391602 96.39080322 75.47783203 97.21910645 76.11035156 98.07250977 C78.070635 100.71719821 80.03482937 103.35894143 82 106 C84.58685938 109.47656689 87.16966953 112.95608562 89.75 116.4375 C90.34586914 117.23551025 90.94173828 118.03352051 91.55566406 118.85571289 C92.10963867 119.60328857 92.66361328 120.35086426 93.234375 121.12109375 C93.72131836 121.7752124 94.20826172 122.42933105 94.70996094 123.10327148 C96.00260376 125.00382828 97.02226994 126.92246792 98 129 C94.5409297 129.5183409 91.44705572 129.66460761 88 129 C85.03713585 126.71429709 83.24439447 123.82293721 81.25 120.6875 C80.06217857 118.94985007 78.87334518 117.21289154 77.68359375 115.4765625 C76.78229736 114.12546387 76.78229736 114.12546387 75.86279297 112.74707031 C72.81483785 108.25223532 69.5573998 103.91608806 66.3125 99.5625 C65.16189831 98.00193735 64.01210017 96.44078177 62.86328125 94.87890625 C61.37366887 92.85613273 59.88200423 90.85118841 58.32104492 88.88256836 C57 87 57 87 57 85 C40.83 85 24.66 85 8 85 C8 99.52 8 114.04 8 129 C5.36 129 2.72 129 0 129 C0 86.43 0 43.86 0 0 Z M8 8 C8 31.1 8 54.2 8 78 C15.3425 78.061875 22.685 78.12375 30.25 78.1875 C32.54227539 78.21481201 34.83455078 78.24212402 37.19628906 78.27026367 C52.42862123 78.37746462 65.69374677 77.86248931 77.8125 67.44140625 C85.29345877 59.64250673 86.59968686 49.93469258 86.47045898 39.56762695 C86.06183886 29.24097923 82.50416514 22.10834104 75 15 C66.77182225 8.23460941 57.1264953 7.55707359 46.8671875 7.70703125 C45.87468994 7.71005249 44.88219238 7.71307373 43.85961914 7.71618652 C40.19797167 7.73172927 36.53647395 7.77361161 32.875 7.8125 C24.66625 7.874375 16.4575 7.93625 8 8 Z " fill="#5B5A5D" transform="translate(1470,803)"/>
<path d="M0 0 C5 0 5 0 7.17578125 1.8359375 C8.23345703 3.09277344 8.23345703 3.09277344 9.3125 4.375 C10.09753906 5.29796875 10.88257813 6.2209375 11.69140625 7.171875 C12.45324219 8.10515625 13.21507812 9.0384375 14 10 C14.62777344 10.76828125 15.25554687 11.5365625 15.90234375 12.328125 C17.18356739 13.92085122 18.45645303 15.52030681 19.72265625 17.125 C22.51450485 20.64952928 25.34920945 24.13783771 28.1875 27.625 C28.74276367 28.30771973 29.29802734 28.99043945 29.87011719 29.69384766 C31.01143059 31.09710721 32.15287055 32.50026384 33.29443359 33.90332031 C36.03116479 37.26762714 38.7654955 40.63388328 41.5 44 C42.58332107 45.3333433 43.66665442 46.66667662 44.75 48 C46.91666667 50.66666667 49.08333333 53.33333333 51.25 56 C51.78641113 56.66016113 52.32282227 57.32032227 52.87548828 58.00048828 C53.95734112 59.33207451 55.03904718 60.66378 56.12060547 61.99560547 C58.85039108 65.35666941 61.58280217 68.71553619 64.3203125 72.0703125 C69.93672419 78.95881743 75.49519395 85.88273077 80.95507812 92.89599609 C84.6983355 97.67705642 88.59518326 102.31718457 92.56103516 106.91479492 C95.90095365 110.80190731 95.90095365 110.80190731 97 113 C97.33 75.71 97.66 38.42 98 0 C100.31 0 102.62 0 105 0 C105 42.57 105 85.14 105 129 C99 129 99 129 96.5 126.53515625 C95.64861228 125.39081792 94.81648744 124.23199542 94 123.0625 C93.04150748 121.76771772 92.08045087 120.47483066 91.1171875 119.18359375 C90.6128418 118.49894043 90.10849609 117.81428711 89.58886719 117.10888672 C86.88395129 113.51868028 84.00077199 110.07870876 81.125 106.625 C79.93561474 105.18798248 78.74681511 103.75048006 77.55859375 102.3125 C76.96933105 101.59964844 76.38006836 100.88679687 75.77294922 100.15234375 C72.89390542 96.65721154 70.03982604 93.1419457 67.1875 89.625 C63.63325661 85.24315732 60.07599012 80.86414095 56.5 76.5 C51.21049332 70.0425548 45.95097339 63.56081424 40.68945312 57.08056641 C37.96041309 53.71974571 35.23014439 50.35992358 32.5 47 C31.97059814 46.34837891 31.44119629 45.69675781 30.89575195 45.02539062 C28.07562667 41.55420413 25.25497362 38.08344812 22.43359375 34.61328125 C21.84835937 33.89333984 21.263125 33.17339844 20.66015625 32.43164062 C19.54442763 31.05911732 18.42855167 29.68671377 17.3125 28.31445312 C16.80589844 27.69119141 16.29929687 27.06792969 15.77734375 26.42578125 C15.33640381 25.88348877 14.89546387 25.34119629 14.44116211 24.7824707 C12.61884202 22.52857286 10.81063589 20.26329487 9 18 C8.67 54.63 8.34 91.26 8 129 C5.36 129 2.72 129 0 129 C0 86.43 0 43.86 0 0 Z " fill="#5B5A5D" transform="translate(1221,803)"/>
<path d="M0 0 C6 0 6 0 8.09765625 1.84375 C8.74605469 2.7203125 9.39445312 3.596875 10.0625 4.5 C10.83207031 5.50675781 11.60164063 6.51351562 12.39453125 7.55078125 C12.81041504 8.10588379 13.22629883 8.66098633 13.65478516 9.23291016 C16.10418795 12.45047412 18.68838597 15.55913697 21.25 18.6875 C22.37043078 20.06588699 23.49021476 21.44479997 24.609375 22.82421875 C27.90530238 26.88358281 31.20251472 30.94190142 34.5 35 C35.58333946 36.33332835 36.66667279 37.66666169 37.75 39 C38.28625 39.66 38.8225 40.32 39.375 41 C45.33333333 48.33333333 51.29166667 55.66666667 57.25 63 C57.78641113 63.66016113 58.32282227 64.32032227 58.87548828 65.00048828 C59.95734112 66.33207451 61.03904718 67.66378 62.12060547 68.99560547 C64.85039108 72.35666941 67.58280217 75.71553619 70.3203125 79.0703125 C76.02493652 86.0668982 81.69250652 93.08576515 87.22314453 100.22119141 C90.37236713 104.26700746 93.65193926 108.09392913 97 112 C97.33 75.04 97.66 38.08 98 0 C100.31 0 102.62 0 105 0 C105 42.57 105 85.14 105 129 C100 129 100 129 97.16796875 126.2890625 C96.15920535 125.0802929 95.16648719 123.85800918 94.1875 122.625 C93.65761475 121.98159668 93.12772949 121.33819336 92.58178711 120.67529297 C91.0393254 118.79524915 89.51721785 116.90043805 88 115 C87.30648438 114.1440625 86.61296875 113.288125 85.8984375 112.40625 C84.64949405 110.85437134 83.40754958 109.29683955 82.171875 107.734375 C79.41187026 104.25954889 76.61317524 100.81707639 73.8125 97.375 C73.25989502 96.6955835 72.70729004 96.01616699 72.13793945 95.31616211 C70.9997707 93.91691392 69.86150452 92.51774497 68.72314453 91.11865234 C67.01100811 89.01353476 65.30018031 86.90736134 63.58984375 84.80078125 C58.90180803 79.02680094 54.21299805 73.25364178 49.5 67.5 C44.78287774 61.74132338 40.08986481 55.96320368 35.3984375 50.18359375 C33.15717397 47.42288746 30.91225796 44.66522 28.6640625 41.91015625 C28.11266602 41.23364014 27.56126953 40.55712402 26.99316406 39.86010742 C25.97265014 38.60817641 24.95128255 37.35694032 23.92871094 36.10668945 C18.52623754 29.47401211 13.28825541 22.73050688 8 16 C7.67 53.29 7.34 90.58 7 129 C4.69 129 2.38 129 0 129 C0 86.43 0 43.86 0 0 Z " fill="#5B5A5D" transform="translate(1401,985)"/>
<path d="M0 0 C28.05 0 56.1 0 85 0 C85 2.31 85 4.62 85 7 C59.59 7 34.18 7 8 7 C8 25.48 8 43.96 8 63 C29.78 63 51.56 63 74 63 C74 65.31 74 67.62 74 70 C52.22 70 30.44 70 8 70 C8 86.83 8 103.66 8 121 C34.73 121 61.46 121 89 121 C89 123.64 89 126.28 89 129 C59.63 129 30.26 129 0 129 C0 86.43 0 43.86 0 0 Z " fill="#5B5A5D" transform="translate(1673,985)"/>
<path d="M0 0 C2.31 0 4.62 0 7 0 C17.19466459 22.50789022 27.37844175 45.02012196 37.46728516 67.57568359 C39.33826456 71.7557341 41.21332818 75.93394585 43.08876038 80.11199951 C45.5176164 85.52351887 47.94191579 90.93707277 50.36523438 96.35107422 C51.48746394 98.85597911 52.61090867 101.36029986 53.73632812 103.86376953 C55.16135908 107.0337237 56.58285915 110.20523883 58.00192261 113.37786865 C58.79702195 115.15294491 59.59586217 116.92634403 60.39477539 118.69970703 C60.86906982 119.7617334 61.34336426 120.82375977 61.83203125 121.91796875 C62.25202393 122.85406982 62.6720166 123.7901709 63.10473633 124.75463867 C64 127 64 127 64 129 C61.36 129 58.72 129 56 129 C51.67448661 120.7245001 47.75067151 112.32832127 44.0625 103.75 C43.6610376 102.82098877 43.2595752 101.89197754 42.84594727 100.93481445 C42.47526123 100.06429443 42.1045752 99.19377441 41.72265625 98.296875 C41.39015869 97.51666992 41.05766113 96.73646484 40.71508789 95.93261719 C40 94 40 94 40 92 C15.91 92 -8.18 92 -33 92 C-33.99 94.97 -34.98 97.94 -36 101 C-36.92683641 103.2642604 -37.88620604 105.51557022 -38.8828125 107.75 C-39.41003906 108.93464844 -39.93726563 110.11929687 -40.48046875 111.33984375 C-40.75036621 111.94038574 -41.02026367 112.54092773 -41.29833984 113.15966797 C-42.13496609 115.02218676 -42.96439667 116.88779241 -43.79296875 118.75390625 C-47.86221168 127.86221168 -47.86221168 127.86221168 -49 129 C-51.67058851 129.14115161 -54.32432238 129.04247107 -57 129 C-56.35464289 124.69474199 -54.80139889 121.02800461 -52.96484375 117.12109375 C-52.65500549 116.45005615 -52.34516724 115.77901855 -52.02593994 115.08764648 C-51.3540193 113.63331951 -50.67978875 112.18005799 -50.00350952 110.72775269 C-48.16225468 106.77193543 -46.33963411 102.80754139 -44.515625 98.84375 C-44.13798508 98.02402206 -43.76034515 97.20429413 -43.3712616 96.35972595 C-39.56623283 88.08627415 -35.86949318 79.7662556 -32.1875 71.4375 C-26.12686318 57.74149028 -19.99117207 44.08066823 -13.8125 30.4375 C-13.40631439 29.54054413 -13.00012878 28.64358826 -12.58163452 27.7194519 C-8.39496219 18.47636367 -4.20243474 9.23593335 0 0 Z M3 11 C-1.74710902 20.26396429 -6.10807269 29.60701708 -10.1875 39.1875 C-11.30751216 41.80310947 -12.43063819 44.41737324 -13.5546875 47.03125 C-13.83695694 47.68836472 -14.11922638 48.34547943 -14.41004944 49.02250671 C-16.40240918 53.64799811 -18.44109606 58.25104277 -20.5078125 62.84375 C-20.7880275 63.46760086 -21.06824249 64.09145172 -21.35694885 64.73420715 C-22.69551597 67.71230402 -24.04015777 70.68743294 -25.39331055 73.65893555 C-25.86808838 74.7137915 -26.34286621 75.76864746 -26.83203125 76.85546875 C-27.25202393 77.77996826 -27.6720166 78.70446777 -28.10473633 79.65698242 C-29.17846508 82.04902685 -29.17846508 82.04902685 -29 85 C-7.55 85 13.9 85 36 85 C33.69815361 77.94954572 33.69815361 77.94954572 30.96630859 71.16479492 C30.59516937 70.3290947 30.22403015 69.49339447 29.84164429 68.63237 C29.44788605 67.75724258 29.05412781 66.88211517 28.6484375 65.98046875 C28.23010651 65.04181473 27.81177551 64.10316071 27.38076782 63.13606262 C26.04944689 60.15143269 24.71231219 57.16944948 23.375 54.1875 C22.50092217 52.2299873 21.62722143 50.27230618 20.75390625 48.31445312 C15.19628636 35.86418402 9.60112472 23.43074575 4 11 C3.67 11 3.34 11 3 11 Z " fill="#5B5A5D" transform="translate(1318,985)"/>
<path d="M0 0 C2.43070181 1.91061108 4.76640384 3.87618669 7.06640625 5.94140625 C7.63488281 6.44027344 8.20335937 6.93914063 8.7890625 7.453125 C10.19140625 8.75390625 10.19140625 8.75390625 12.06640625 10.94140625 C12.06640625 11.93140625 12.06640625 12.92140625 12.06640625 13.94140625 C9.06640625 16.12890625 9.06640625 16.12890625 6.06640625 17.94140625 C5.54433594 17.37292969 5.02226563 16.80445313 4.484375 16.21875 C-7.42501857 3.72535814 -21.94114163 -3.57284739 -39.34375 -4.1796875 C-55.72025232 -3.62727012 -70.99884749 1.99444473 -82.82421875 13.6015625 C-95.45395092 27.61120985 -98.79177054 42.17180013 -98.11279297 60.48730469 C-97.1008383 74.34584462 -88.97040099 86.75975299 -78.93359375 95.94140625 C-63.87369113 107.0120571 -47.34390258 111.31663335 -28.85888672 108.64111328 C-16.64705445 106.17486982 -6.94285972 100.40479649 1.97265625 91.89453125 C4.06640625 89.94140625 4.06640625 89.94140625 7.06640625 87.94140625 C8.71640625 89.26140625 10.36640625 90.58140625 12.06640625 91.94140625 C11.3457246 97.76024329 6.07451713 101.19852149 1.77001953 104.66308594 C-13.46996418 116.09853374 -32.30674934 120.26595819 -51.06054688 117.64404297 C-68.35953345 114.6211956 -84.25456199 106.00117152 -94.98046875 91.91796875 C-97.33712667 88.32642209 -99.36383838 84.64384089 -101.30859375 80.81640625 C-101.64262207 80.15962891 -101.97665039 79.50285156 -102.32080078 78.82617188 C-109.50978084 64.01161904 -109.40949551 46.75358886 -104.18359375 31.31640625 C-96.78658512 12.68890276 -84.55912492 0.19221582 -66.1875 -7.76953125 C-44.20695344 -16.4773108 -19.33680706 -13.56923745 0 0 Z " fill="#5B5A5D" transform="translate(1032.93359375,815.05859375)"/>
<path d="M0 0 C1.4540625 0.0309375 1.4540625 0.0309375 2.9375 0.0625 C12.3241778 20.74886793 21.6988792 41.43941825 30.88925171 62.21389771 C34.89710061 71.27190455 38.94732649 80.30907168 43.05078125 89.32421875 C43.70033279 90.75279709 43.70033279 90.75279709 44.36300659 92.2102356 C46.48039677 96.86612072 48.60243615 101.5197856 50.73242188 106.16992188 C51.50538809 107.86710564 52.27818293 109.56436747 53.05078125 111.26171875 C53.4000618 112.01958176 53.74934235 112.77744476 54.10920715 113.55827332 C56.40889455 118.62647884 58.27455513 123.75194687 59.9375 129.0625 C57.2975 129.0625 54.6575 129.0625 51.9375 129.0625 C47.61198661 120.7870001 43.68817151 112.39082127 40 103.8125 C39.5985376 102.88348877 39.1970752 101.95447754 38.78344727 100.99731445 C38.41276123 100.12679443 38.0420752 99.25627441 37.66015625 98.359375 C37.32765869 97.57916992 36.99516113 96.79896484 36.65258789 95.99511719 C35.9375 94.0625 35.9375 94.0625 35.9375 92.0625 C0.2975 92.5575 0.2975 92.5575 -36.0625 93.0625 C-43.9825 110.8825 -43.9825 110.8825 -52.0625 129.0625 C-55.0325 129.0625 -58.0025 129.0625 -61.0625 129.0625 C-59.51845793 124.07972302 -57.50961204 119.42813259 -55.34375 114.6953125 C-54.78916359 113.47361359 -54.78916359 113.47361359 -54.22337341 112.22723389 C-53.42421379 110.46760915 -52.62370567 108.70859635 -51.82199097 106.95013428 C-50.10161594 103.17657247 -48.38782355 99.40003281 -46.67356873 95.62368774 C-45.78471723 93.66583109 -44.8955228 91.70813009 -44.0059967 89.75057983 C-40.0168411 80.97040543 -36.05344166 72.17878643 -32.09933472 63.38278198 C-31.00108891 60.93992209 -29.90212447 58.49738664 -28.80297852 56.05493164 C-25.28185961 48.22928663 -21.76521423 40.4016612 -18.25584412 32.57073975 C-16.57677932 28.82472788 -14.89603965 25.07946869 -13.21511841 21.33428955 C-12.40915248 19.53726709 -11.60402882 17.73986663 -10.79977417 15.94207764 C-9.69016036 13.46177125 -8.57780838 10.98271045 -7.46484375 8.50390625 C-7.13347412 7.76121994 -6.80210449 7.01853363 -6.46069336 6.25334167 C-3.6808701 0.0751198 -3.6808701 0.0751198 0 0 Z M-1.0625 11.0625 C-8.31219042 27.12764238 -15.48836083 43.22502862 -22.59210205 59.35525513 C-23.40508957 61.20036477 -24.21917512 63.04499099 -25.03436279 64.88912964 C-26.18754871 67.49891732 -27.33652119 70.11051979 -28.484375 72.72265625 C-28.83172699 73.50689972 -29.17907898 74.29114319 -29.53695679 75.09915161 C-29.85572784 75.82705902 -30.1744989 76.55496643 -30.50292969 77.30493164 C-30.78126648 77.93693985 -31.05960327 78.56894806 -31.34637451 79.22010803 C-32.23155622 81.38339185 -32.23155622 81.38339185 -33.0625 85.0625 C-11.6125 85.0625 9.8375 85.0625 31.9375 85.0625 C29.63565361 78.01204572 29.63565361 78.01204572 26.90380859 71.22729492 C26.53266937 70.3915947 26.16153015 69.55589447 25.77914429 68.69487 C25.38538605 67.81974258 24.99162781 66.94461517 24.5859375 66.04296875 C24.16760651 65.10431473 23.74927551 64.16566071 23.31826782 63.19856262 C21.98694689 60.21393269 20.64981219 57.23194948 19.3125 54.25 C18.43842217 52.2924873 17.56472143 50.33480618 16.69140625 48.37695312 C11.13378636 35.92668402 5.53862472 23.49324575 -0.0625 11.0625 C-0.3925 11.0625 -0.7225 11.0625 -1.0625 11.0625 Z " fill="#5B5A5D" transform="translate(1642.0625,802.9375)"/>
<path d="M0 0 C4.10119316 3.2723431 7.78671624 6.35512413 10.7890625 10.6875 C9.6915402 13.68074263 9.11223358 14.53360901 6.1640625 15.9375 C5.3803125 16.185 4.5965625 16.4325 3.7890625 16.6875 C3.0878125 15.718125 2.3865625 14.74875 1.6640625 13.75 C-6.98203749 3.71726133 -20.33026487 -2.27274539 -33.2109375 -4.3125 C-51.58061471 -5.29828247 -67.41512824 -1.84056106 -81.828125 10.37109375 C-92.81702283 21.05374361 -99.1068581 34.38811398 -100.2109375 49.6875 C-100.36830653 65.89651021 -94.59823582 79.61933594 -83.59375 91.33203125 C-72.01498468 102.77792549 -58.04786939 108.3535388 -41.7109375 109.0625 C-24.4739012 108.25400862 -10.31385546 101.96546016 1.7890625 89.6875 C2.4490625 89.0275 3.1090625 88.3675 3.7890625 87.6875 C7.08185959 88.00615778 8.65441338 89.23265351 10.7890625 91.6875 C5.60517338 103.07221343 -7.1240812 109.09196332 -18.09375 113.64453125 C-35.66677951 119.52422909 -55.69646003 118.49467093 -72.3359375 110.5 C-87.47101884 102.76456643 -99.39992057 90.28361705 -105.5 74.3125 C-107.38405389 68.45702317 -108.80180243 62.824526 -109.2109375 56.6875 C-109.2625 56.05328125 -109.3140625 55.4190625 -109.3671875 54.765625 C-110.09881671 38.54784417 -104.42154808 22.3834095 -93.7734375 10.1875 C-92.27449994 8.66561952 -90.75428562 7.1643245 -89.2109375 5.6875 C-88.52515625 4.98238281 -87.839375 4.27726563 -87.1328125 3.55078125 C-63.7843149 -19.14914697 -25.47671255 -18.348192 0 0 Z " fill="#5B5A5D" transform="translate(1638.2109375,997.3125)"/>
<path d="M0 0 C3.75686234 3.12951681 6.83390611 6.61663845 9.875 10.4375 C8.225 12.0875 6.575 13.7375 4.875 15.4375 C1.88984399 14.11788168 0.11713526 12.77295449 -2 10.3125 C-12.692534 -0.6080198 -28.10562231 -5.85682012 -43.125 -6.0625 C-59.31510167 -5.87442194 -73.19647274 0.05399474 -84.90625 11.15234375 C-95.62532308 22.19223416 -101.13850292 35.55029829 -101.5 50.9375 C-101.10279418 66.53974443 -95.40796655 79.90414068 -84.56640625 91.22265625 C-72.65589375 102.02787319 -57.21926958 107.8450927 -41.19311523 107.41381836 C-23.2140102 106.53300988 -9.70062378 98.74555732 2.875 86.4375 C5.75937779 87.73049694 7.74719421 89.09691363 9.875 91.4375 C-0.04936371 104.08942063 -15.10805283 113.07692372 -31.125 115.4375 C-50.6574668 117.15690729 -68.9645299 114.66303572 -84.875 102.30078125 C-87.39591552 100.09882303 -89.77275422 97.81803739 -92.125 95.4375 C-92.83398438 94.75042969 -93.54296875 94.06335937 -94.2734375 93.35546875 C-106.19462562 81.0460427 -110.67202546 65.01833931 -110.54492188 48.24243164 C-109.92772872 29.53475323 -101.52166879 14.072361 -88.125 1.4375 C-62.55283826 -20.21602085 -26.32705136 -19.6014853 0 0 Z " fill="#5B5A5D" transform="translate(1240.125,998.5625)"/>
<path d="M0 0 C33.33 0 66.66 0 101 0 C101 2.64 101 5.28 101 8 C85.49 8 69.98 8 54 8 C54 47.93 54 87.86 54 129 C51.69 129 49.38 129 47 129 C47 89.07 47 49.14 47 8 C31.49 8 15.98 8 0 8 C0 5.36 0 2.72 0 0 Z " fill="#5B5A5D" transform="translate(1348,803)"/>
<path d="M0 0 C2.80859375 2.16015625 2.80859375 2.16015625 5.4375 5.0625 C8.60370196 8.46430351 11.74323081 11.76193365 15.3125 14.75 C18.9706642 17.86509653 21.96323955 21.27996845 25 25 C20.29041214 25.68364985 17.49679824 26.02817449 13.4921875 23.27734375 C10.91502865 20.92235377 8.4549922 18.48176002 6 16 C4.30293708 14.46660042 2.59529955 12.9447844 0.875 11.4375 C-0.24261719 10.44556641 -0.24261719 10.44556641 -1.3828125 9.43359375 C-1.91648437 8.96050781 -2.45015625 8.48742187 -3 8 C-6.51423905 9.49137007 -8.68476369 11.50557913 -11.3125 14.25 C-12.10269531 15.04792969 -12.89289063 15.84585938 -13.70703125 16.66796875 C-15.09122118 18.07573942 -16.46649567 19.49246759 -17.82421875 20.92578125 C-21.14620773 24.17033459 -23.21395564 25.35289293 -27.9375 25.375 C-29.29409299 25.27987996 -30.65015829 25.16528674 -32 25 C-32 24.34 -32 23.68 -32 23 C-30.63671875 21.66015625 -30.63671875 21.66015625 -28.6875 20.0625 C-25.07079896 16.99826129 -21.69878981 13.75036097 -18.375 10.375 C-16.58620744 8.58043616 -14.79306252 6.79030397 -13 5 C-12.40960937 4.40058594 -11.81921875 3.80117188 -11.2109375 3.18359375 C-7.5232022 -0.27735569 -4.94629315 -0.57943796 0 0 Z " fill="#5B5A5D" transform="translate(1325,951)"/>
</svg>
