<?xml version="1.0" encoding="UTF-8"?>
<svg version="1.1" xmlns="http://www.w3.org/2000/svg" width="475" height="622">
<path d="M0 0 C0.89392456 0.00215515 1.78784912 0.0043103 2.7088623 0.00653076 C15.83829155 0.0572111 28.72092216 0.30478196 41.5625 3.3125 C42.42101562 3.51117676 43.27953125 3.70985352 44.1640625 3.91455078 C61.61312681 8.11024618 77.21592679 15.00344151 91.875 25.375 C92.52017578 25.82166016 93.16535156 26.26832031 93.83007812 26.72851562 C95.44512768 27.87186817 97.00894544 29.08689471 98.5625 30.3125 C98.5625 30.9725 98.5625 31.6325 98.5625 32.3125 C99.10648437 32.53550781 99.65046875 32.75851563 100.2109375 32.98828125 C122.77400238 45.69406031 135.27684573 78.96782607 141.9597168 102.40356445 C153.919073 146.42448789 153.89931394 205.26874169 134.5625 247.3125 C134.10226621 248.65910999 133.66123 250.01262579 133.25 251.375 C125.09421495 276.13363319 110.82250292 300.07703381 94.5625 320.3125 C93.93601562 321.11300781 93.30953125 321.91351563 92.6640625 322.73828125 C81.40882916 337.04088014 68.54140198 351.75360188 53.5625 362.3125 C52.9025 362.3125 52.2425 362.3125 51.5625 362.3125 C51.5625 362.9725 51.5625 363.6325 51.5625 364.3125 C49.59962252 365.69990397 47.59257817 367.02542565 45.5625 368.3125 C44.76972656 368.89128906 43.97695313 369.47007812 43.16015625 370.06640625 C13.08804051 391.52001116 -23.11388787 399.50826068 -59.48828125 394.125 C-76.79278397 390.82304972 -93.50367994 383.60785018 -108.12109375 373.85546875 C-111.14337966 371.84231035 -114.26433928 370.07536707 -117.4375 368.3125 C-117.4375 367.6525 -117.4375 366.9925 -117.4375 366.3125 C-118.15164062 366.07015625 -118.86578125 365.8278125 -119.6015625 365.578125 C-122.83315032 364.13592878 -125.10833541 362.34050685 -127.8125 360.0625 C-128.76511719 359.26199219 -129.71773438 358.46148437 -130.69921875 357.63671875 C-131.60285156 356.86972656 -132.50648438 356.10273438 -133.4375 355.3125 C-134.56091797 354.39404297 -134.56091797 354.39404297 -135.70703125 353.45703125 C-137.32426839 352.12305764 -138.88784023 350.72441223 -140.4375 349.3125 C-140.4375 348.6525 -140.4375 347.9925 -140.4375 347.3125 C-141.29601562 346.94125 -141.29601562 346.94125 -142.171875 346.5625 C-144.78760611 345.11933801 -146.58523456 343.43033778 -148.6875 341.3125 C-149.39390625 340.61125 -150.1003125 339.91 -150.828125 339.1875 C-152.4375 337.3125 -152.4375 337.3125 -152.4375 335.3125 C-153.05625 335.065 -153.675 334.8175 -154.3125 334.5625 C-156.78818687 333.10621361 -157.38875002 331.93437494 -158.4375 329.3125 C-159.0975 329.3125 -159.7575 329.3125 -160.4375 329.3125 C-162.28597311 327.1395767 -164.0296349 324.95847332 -165.75 322.6875 C-166.70355123 321.44464003 -167.65797237 320.20244698 -168.61328125 318.9609375 C-169.08306396 318.34935791 -169.55284668 317.73777832 -170.03686523 317.10766602 C-172.59711577 313.82624328 -175.26566554 310.64057906 -178.01953125 307.51953125 C-181.4375 303.64583333 -181.4375 303.64583333 -181.4375 300.3125 C-182.4275 299.9825 -183.4175 299.6525 -184.4375 299.3125 C-186.19140625 297.1328125 -186.19140625 297.1328125 -188 294.4375 C-188.59941406 293.55320312 -189.19882813 292.66890625 -189.81640625 291.7578125 C-190.61884766 290.54738281 -190.61884766 290.54738281 -191.4375 289.3125 C-192.0975 288.3225 -192.7575 287.3325 -193.4375 286.3125 C-193.4375 285.3225 -193.4375 284.3325 -193.4375 283.3125 C-194.0975 283.3125 -194.7575 283.3125 -195.4375 283.3125 C-196.74525702 281.44857045 -197.95723672 279.51718431 -199.125 277.5625 C-199.48166748 276.96614746 -199.83833496 276.36979492 -200.20581055 275.75537109 C-200.94071193 274.52395002 -201.6725494 273.29069545 -202.40136719 272.05566406 C-203.2935289 270.55471339 -204.21083012 269.06875709 -205.1328125 267.5859375 C-216.6751508 248.68326754 -225.43739692 227.91155299 -231.25 206.5625 C-231.54269775 205.50144043 -231.54269775 205.50144043 -231.84130859 204.41894531 C-234.88928293 192.55524997 -235.77500324 180.53801583 -235.69824219 168.33300781 C-235.68750184 166.31284611 -235.69823225 164.29357304 -235.7109375 162.2734375 C-235.72746177 149.43583088 -234.57449249 136.97626252 -230.3125 124.8125 C-229.85290894 123.47614502 -229.85290894 123.47614502 -229.3840332 122.11279297 C-224.41320283 108.14622938 -216.41102003 91.54414825 -205.4375 81.3125 C-204.47446489 80.17061551 -203.51659583 79.02436415 -202.5625 77.875 C-184.10512069 56.74768532 -159.74020583 40.968257 -134.4375 29.3125 C-132.86162109 28.57 -132.86162109 28.57 -131.25390625 27.8125 C-107.39383753 17.0652475 -81.9516779 9.97228311 -56.3125 5.0625 C-55.03938965 4.81604736 -53.7662793 4.56959473 -52.45458984 4.31567383 C-35.03959603 1.11033109 -17.69236467 -0.07749267 0 0 Z M-41.4375 61.3125 C-41.4375 101.5725 -41.4375 141.8325 -41.4375 183.3125 C-81.3675 183.3125 -121.2975 183.3125 -162.4375 183.3125 C-162.4375 205.0925 -162.4375 226.8725 -162.4375 249.3125 C-139.3375 249.3125 -116.2375 249.3125 -92.4375 249.3125 C-92.4375 272.4125 -92.4375 295.5125 -92.4375 319.3125 C-70.3275 319.3125 -48.2175 319.3125 -25.4375 319.3125 C-25.4375 279.0525 -25.4375 238.7925 -25.4375 197.3125 C14.8225 197.3125 55.0825 197.3125 96.5625 197.3125 C96.5625 175.5325 96.5625 153.7525 96.5625 131.3125 C73.4625 131.3125 50.3625 131.3125 26.5625 131.3125 C26.5625 108.2125 26.5625 85.1125 26.5625 61.3125 C4.1225 61.3125 -18.3175 61.3125 -41.4375 61.3125 Z " fill="#DC6755" transform="translate(297.4375,101.6875)"/>
<path d="M0 0 C0.77338431 0.00092179 1.54676863 0.00184359 2.34358883 0.00279331 C3.22660199 0.00141582 4.10961515 0.00003832 5.01938629 -0.00138092 C5.99946624 0.00221719 6.97954618 0.0058153 7.98932552 0.00952244 C9.55067557 0.00934164 9.55067557 0.00934164 11.14356804 0.00915718 C14.53024488 0.00990665 17.91686744 0.01753641 21.30353451 0.02539158 C23.38747792 0.02686089 25.4714217 0.02788167 27.55536556 0.02844334 C35.30345874 0.03369744 43.05154402 0.0476585 50.79962826 0.06054783 C76.75619076 0.09148533 76.75619076 0.09148533 103.23712826 0.12304783 C103.23712826 35.76304783 103.23712826 71.40304783 103.23712826 108.12304783 C91.68712826 108.12304783 80.13712826 108.12304783 68.23712826 108.12304783 C67.23712826 107.12304783 67.23712826 107.12304783 67.11687374 104.38328648 C67.11909435 103.1597295 67.12131496 101.93617252 67.12360287 100.67553806 C67.12345684 100.00239567 67.12331081 99.32925327 67.12316036 98.63571262 C67.12385947 96.40098999 67.13165173 94.16634973 67.13947201 91.93164158 C67.1413362 90.38607421 67.14276009 88.84050626 67.14375973 87.29493809 C67.14758486 83.21947706 67.15741509 79.14405146 67.16846371 75.06860447 C67.17867794 70.91292901 67.18325737 66.75724784 67.18830013 62.60156345 C67.19903737 54.44204196 67.21611372 46.28254929 67.23712826 38.12304783 C66.37491161 38.12526844 65.51269497 38.12748905 64.62435055 38.12977695 C56.5160679 38.14977778 48.40779349 38.16502089 40.29949188 38.17486 C36.13049998 38.18008834 31.96152839 38.18718509 27.79254818 38.19848728 C23.7725514 38.20931791 19.75257421 38.21532503 15.73256397 38.21792507 C14.19549851 38.219779 12.65843416 38.22339901 11.12137699 38.22877789 C8.97577339 38.23599067 6.83025171 38.23703867 4.68463802 38.23657322 C3.46108105 38.23879383 2.23752407 38.24101444 0.97688961 38.24330235 C-1.76287174 38.12304783 -1.76287174 38.12304783 -2.76287174 37.12304783 C-2.86382738 34.4684859 -2.90258173 31.84049607 -2.89568424 29.18554783 C-2.89664097 28.39027683 -2.89759769 27.59500584 -2.89858341 26.77563572 C-2.89926517 25.09098322 -2.89741117 23.40632812 -2.89324284 21.72168064 C-2.88789449 19.13405586 -2.89318793 16.54660467 -2.89959049 13.95898533 C-2.89892971 12.32617244 -2.89764855 10.69335967 -2.89568424 9.06054783 C-2.89770847 8.28139011 -2.8997327 7.5022324 -2.90181828 6.69946384 C-2.87326467 0.20055286 -2.87326467 0.20055286 0 0 Z " fill="#E0755C" transform="translate(152.76287174224854,298.8769521713257)"/>
<path d="M0 0 C0.66 0.33 1.32 0.66 2 1 C-15.04216867 20.34738956 -15.04216867 20.34738956 -20 22 C-17.77820722 14.93065933 -11.49589965 10.55797148 -6.1875 5.6875 C-5.2912793 4.86282227 -5.2912793 4.86282227 -4.37695312 4.02148438 C-2.91885078 2.68003022 -1.4595496 1.33987935 0 0 Z " fill="#EAA79D" transform="translate(112,163)"/>
<path d="M0 0 C6.48529412 8.33823529 6.48529412 8.33823529 6 14 C2.44188906 9.59471979 0 5.75487737 0 0 Z " fill="#F4CDC2" transform="translate(75,331)"/>
<path d="M0 0 C0.53625 0.2475 1.0725 0.495 1.625 0.75 C-3.55078125 3.97265625 -3.55078125 3.97265625 -5.375 4.75 C-6.365 4.42 -7.355 4.09 -8.375 3.75 C-2.95961538 -0.31153846 -2.95961538 -0.31153846 0 0 Z " fill="#F4CDC2" transform="translate(324.375,479.25)"/>
</svg>
